<svg xmlns="http://www.w3.org/2000/svg" viewBox="0 0 64 64">
  <defs>
    <linearGradient id="assistantdentaire-favicon" x1="10" y1="10" x2="54" y2="54" gradientUnits="userSpaceOnUse">
      <stop stop-color="#14b8a6"/>
      <stop offset="1" stop-color="#0f766e"/>
    </linearGradient>
  </defs>
  <rect width="64" height="64" rx="32" fill="url(#assistantdentaire-favicon)"/>
  <path
    d="M20 12.4c3.2-1.6 6.9-.8 9.9 1.1 1.3.8 2.9.8 4.2 0 3-1.9 6.7-2.7 9.9-1.1 6.4 2.9 8.3 11.2 5.1 19.2-1.6 4.3-2.9 8.5-3.7 13.1-1.1 5.9-2.4 11.5-6.1 11.5-2.7 0-3.5-3.5-4.3-7.5-.8-3.2-1.3-6.4-3-6.4s-2.1 3.2-3 6.4c-.8 4-1.6 7.5-4.3 7.5-3.7 0-5.1-5.6-6.1-11.5-.8-4.5-2.1-8.8-3.7-13.1-3.2-8-1.3-16.3 5.1-19.2Z"
    fill="none"
    stroke="#ffffff"
    stroke-width="5.4"
    stroke-linecap="round"
    stroke-linejoin="round"
  />
</svg>
